HIERARCHY
ROOT Pelvis
{
	OFFSET 0.000000 0.000000 0.000000
	CHANNELS 6 Xposition Yposition Zposition Xrotation Yrotation Zrotation
	JOINT LeftUpLeg_virtual
	{
		OFFSET 0.000000 0.000000 0.000000
		CHANNELS 3 Xrotation Yrotation Zrotation
		JOINT LeftUpLeg
		{
			OFFSET 18.735201 -5.666702 -4.541200
			CHANNELS 3 Xrotation Yrotation Zrotation
			JOINT LeftLeg
			{
				OFFSET -0.021200 -31.938179 0.493100
				CHANNELS 3 Xrotation Yrotation Zrotation
				JOINT LeftFoot
				{
					OFFSET 0.021200 -31.938179 -4.336299
					CHANNELS 3 Xrotation Yrotation Zrotation
					JOINT LeftToeBase
					{
						OFFSET 0.943001 -26.722000 15.023500
						CHANNELS 3 Xrotation Yrotation Zrotation
						End Site
						{
							OFFSET 0 0 0
						}
					}
				}
			}
		}
	}
	JOINT RightUpLeg_virtual
	{
		OFFSET 0.000000 0.000000 0.000000
		CHANNELS 3 Xrotation Yrotation Zrotation
		JOINT RightUpLeg
		{
			OFFSET -18.735201 -5.666702 -4.541200
			CHANNELS 3 Xrotation Yrotation Zrotation
			JOINT RightLeg
			{
				OFFSET 0.018946 -31.938133 0.493100
				CHANNELS 3 Xrotation Yrotation Zrotation
				JOINT RightFoot
				{
					OFFSET -0.018946 -31.938126 -4.336299
					CHANNELS 3 Xrotation Yrotation Zrotation
					JOINT RightToeBase
					{
						OFFSET -0.943001 -26.722004 15.023500
						CHANNELS 3 Xrotation Yrotation Zrotation
						End Site
						{
							OFFSET 0 0 0
						}
					}
				}
			}
		}
	}
	JOINT Hips_virtual
	{
		OFFSET 0.000000 0.000000 0.000000
		CHANNELS 3 Xrotation Yrotation Zrotation
		JOINT Hips
		{
			OFFSET -0.000000 -0.000000 -0.000000
			CHANNELS 3 Xrotation Yrotation Zrotation
			JOINT Spine
			{
				OFFSET 0.000000 10.199997 -0.299500
				CHANNELS 3 Xrotation Yrotation Zrotation
				JOINT Spine1
				{
					OFFSET 0.000000 11.900002 -1.516600
					CHANNELS 3 Xrotation Yrotation Zrotation
					JOINT Spine2
					{
						OFFSET 0.000000 13.600006 -2.842500
						CHANNELS 3 Xrotation Yrotation Zrotation
						JOINT Neck_virtual
						{
							OFFSET 0.000000 0.000000 0.000000
							CHANNELS 3 Xrotation Yrotation Zrotation
							JOINT Neck
							{
								OFFSET 0.000000 9.624100 -2.890100
								CHANNELS 3 Xrotation Yrotation Zrotation
								JOINT Head
								{
									OFFSET 0.000000 14.068802 -1.351900
									CHANNELS 3 Xrotation Yrotation Zrotation
									End Site
									{
										OFFSET 0 0 0
									}
								}
							}
						}
						JOINT LeftShoulder_virtual
						{
							OFFSET 0.000000 0.000000 0.000000
							CHANNELS 3 Xrotation Yrotation Zrotation
							JOINT LeftShoulder
							{
								OFFSET 15.263000 10.923401 -0.547700
								CHANNELS 3 Xrotation Yrotation Zrotation
								JOINT LeftArm
								{
									OFFSET 25.438599 -2.830597 -13.032500
									CHANNELS 3 Xrotation Yrotation Zrotation
									JOINT LeftForeArm
									{
										OFFSET 29.960503 0.000000 0.000000
										CHANNELS 3 Xrotation Yrotation Zrotation
										JOINT LeftHand
										{
											OFFSET 27.849251 0.000000 0.000000
											CHANNELS 3 Xrotation Yrotation Zrotation
											End Site
											{
												OFFSET 0 0 0
											}
										}
									}
								}
							}
						}
						JOINT RightShoulder_virtual
						{
							OFFSET 0.000000 0.000000 0.000000
							CHANNELS 3 Xrotation Yrotation Zrotation
							JOINT RightShoulder
							{
								OFFSET -15.263000 10.923401 -0.547700
								CHANNELS 3 Xrotation Yrotation Zrotation
								JOINT RightArm
								{
									OFFSET -25.438599 -2.830597 -13.032500
									CHANNELS 3 Xrotation Yrotation Zrotation
									JOINT RightForeArm
									{
										OFFSET -29.960503 0.000000 0.000000
										CHANNELS 3 Xrotation Yrotation Zrotation
										JOINT RightHand
										{
											OFFSET -27.849251 0.000000 0.000000
											CHANNELS 3 Xrotation Yrotation Zrotation
											End Site
											{
												OFFSET 0 0 0
											}
										}
									}
								}
							}
						}
					}
				}
			}
		}
	}
}
MOTION
Frames: 13
Frame Time: 0.03333333
-7.575758 90.803680 13.242172 0.000000 0.000000 0.000000 -5.178526 -8.748383 -1.106486 -14.933534 -1.383307 10.278943 30.014443 0.550914 -4.979977 -4.849893 0.132136 10.050926 0.000000 0.000000 0.000000 -6.175361 -7.679680 -1.031141 -25.578698 5.437619 5.015255 27.321532 1.263964 4.683348 19.762550 -3.035080 3.374339 0.000000 0.000000 0.000000 -5.792458 -7.817384 -0.983806 -0.752631 -0.102761 -0.191554 5.851793 -4.669731 -0.636603 4.490552 2.927150 -0.307277 0.000000 0.000000 0.000000 1.798958 4.218308 -0.572509 1.963854 -6.896009 -1.557312 0.000000 0.000000 0.000000 -0.127999 2.852871 -0.305868 1.747414 9.011483 -15.625656 -24.452538 -37.056071 -67.125426 -5.587591 -1.170502 -6.778629 0.000000 0.000000 0.000000 2.572935 6.618227 -0.355302 -10.543305 11.980471 11.138486 -0.930889 16.576598 64.810743 12.621327 24.399828 -2.915097 0.000000 0.000000 0.000000 
-7.565126 90.781113 13.185078 0.000000 0.000000 0.000000 -5.171162 -8.926103 -1.065603 -14.697558 -0.968973 10.311548 29.671708 0.375088 -4.933402 -4.943881 -0.011195 9.726858 0.000000 0.000000 0.000000 -6.167277 -7.791572 -0.968767 -25.743301 5.323987 4.939096 27.638104 1.326270 4.667093 19.452705 -2.906857 3.267909 0.000000 0.000000 0.000000 -5.806732 -8.043118 -0.931936 -0.758194 -0.104484 -0.187685 5.967935 -4.698860 -0.687013 4.529838 2.929230 -0.295214 0.000000 0.000000 0.000000 1.774669 4.228104 -0.550752 2.000267 -6.882702 -1.537584 0.000000 0.000000 0.000000 -0.151007 2.868179 -0.269596 1.752573 9.059873 -15.638616 -24.725411 -37.097916 -67.166195 -5.521134 -1.046226 -6.803366 0.000000 0.000000 0.000000 2.628922 6.616408 -0.381491 -10.531755 11.911777 11.204060 -0.848295 16.875405 64.592307 12.607438 24.660514 -2.819060 0.000000 0.000000 0.000000 
-7.553387 90.718102 13.250294 0.000000 0.000000 0.000000 -5.197765 -9.360102 -1.059091 -14.445676 -0.373823 10.425489 29.349036 0.176997 -4.801486 -4.961100 -0.130185 9.342428 0.000000 0.000000 0.000000 -6.190236 -8.135700 -0.967516 -26.226330 5.125487 4.880373 28.490158 1.550954 4.737511 19.055132 -2.635219 3.121554 0.000000 0.000000 0.000000 -5.852440 -8.443520 -0.895117 -0.768854 -0.113560 -0.174683 6.194775 -4.709290 -0.669189 4.529781 2.905607 -0.216666 0.000000 0.000000 0.000000 1.752772 4.210592 -0.467775 2.037217 -6.838345 -1.513778 0.000000 0.000000 0.000000 -0.160954 2.865769 -0.189837 1.770032 8.974859 -15.707089 -24.783490 -36.977097 -67.075319 -5.382646 -0.889241 -6.917657 0.000000 0.000000 0.000000 2.657696 6.584788 -0.350091 -10.406113 11.845134 11.235652 -0.592117 17.406879 64.136719 12.611969 24.927725 -2.675157 0.000000 0.000000 0.000000 
-7.547450 90.636391 13.418991 0.000000 0.000000 0.000000 -5.255902 -9.985188 -1.103171 -14.289042 0.347547 10.660322 29.236485 -0.025096 -4.610947 -4.968544 -0.220634 8.959220 0.000000 0.000000 0.000000 -6.261787 -8.678099 -1.045377 -26.873432 4.887279 4.912930 29.630672 1.950581 4.824363 18.807535 -2.216918 2.966338 0.000000 0.000000 0.000000 -5.924339 -8.969905 -0.896594 -0.783352 -0.122918 -0.157514 6.515944 -4.709241 -0.587946 4.474749 2.857382 -0.088830 0.000000 0.000000 0.000000 1.709591 4.176094 -0.348105 2.068719 -6.761942 -1.488352 0.000000 0.000000 0.000000 -0.160414 2.842953 -0.075420 1.794681 8.736530 -15.828376 -24.606434 -36.677365 -66.861220 -5.182973 -0.760531 -7.124490 0.000000 0.000000 0.000000 2.679206 6.530568 -0.269966 -10.174421 11.765058 11.185410 -0.199426 18.050824 63.495706 12.620094 25.113578 -2.472728 0.000000 0.000000 0.000000 
-7.579166 90.549057 13.634720 0.000000 0.000000 0.000000 -5.330911 -10.756622 -1.182260 -14.205250 1.040015 11.012737 29.400560 -0.285323 -4.345324 -5.164895 -0.343510 8.593270 0.000000 0.000000 0.000000 -6.348339 -9.380018 -1.187640 -27.490883 4.724809 5.083372 30.681681 2.492258 4.891859 18.529811 -1.729820 2.764848 0.000000 0.000000 0.000000 -6.022737 -9.593760 -0.949097 -0.796207 -0.128680 -0.147254 6.867441 -4.701364 -0.458849 4.380182 2.786641 0.067239 0.000000 0.000000 0.000000 1.604141 4.129406 -0.212939 2.085959 -6.656959 -1.466344 0.000000 0.000000 0.000000 -0.165920 2.799700 0.065052 1.814087 8.326873 -15.985026 -24.288947 -36.204770 -66.556751 -4.943691 -0.717462 -7.418821 0.000000 0.000000 0.000000 2.700472 6.455954 -0.161149 -9.846184 11.655445 11.030448 0.244333 18.718864 62.738785 12.642940 25.209523 -2.218066 0.000000 0.000000 0.000000 
-7.670461 90.475334 13.910904 0.000000 0.000000 0.000000 -5.389511 -11.590773 -1.264923 -14.040424 1.670239 11.447644 29.631741 -0.616519 -4.005068 -5.623784 -0.543187 8.216222 0.000000 0.000000 0.000000 -6.420178 -10.194389 -1.355602 -27.894467 4.746532 5.368815 31.381601 3.079558 4.970662 18.054550 -1.280774 2.462134 0.000000 0.000000 0.000000 -6.116785 -10.300340 -1.045648 -0.804160 -0.125594 -0.152401 7.184813 -4.678434 -0.313726 4.249067 2.703019 0.228034 0.000000 0.000000 0.000000 1.421348 4.068138 -0.079174 2.095183 -6.522461 -1.450021 0.000000 0.000000 0.000000 -0.196228 2.733879 0.225117 1.815757 7.782937 -16.152465 -23.932004 -35.567981 -66.177969 -4.697325 -0.760676 -7.783901 0.000000 0.000000 0.000000 2.704497 6.357125 -0.031817 -9.443142 11.520600 10.803441 0.657030 19.359577 61.937788 12.691186 25.225910 -1.917476 0.000000 0.000000 0.000000 
-7.838868 90.426277 14.161797 0.000000 0.000000 0.000000 -5.410756 -12.467885 -1.342559 -13.651171 2.305790 11.869165 29.574764 -0.911811 -3.616147 -6.270328 -0.749598 7.868427 0.000000 0.000000 0.000000 -6.447614 -11.078729 -1.493323 -28.087382 4.892378 5.697267 31.710010 3.639684 5.129224 17.489446 -0.945964 2.066864 0.000000 0.000000 0.000000 -6.167821 -11.114918 -1.164804 -0.805445 -0.108856 -0.167623 7.437409 -4.630068 -0.197043 4.099423 2.610944 0.384887 0.000000 0.000000 0.000000 1.172696 3.985195 0.055418 2.106346 -6.357148 -1.435736 0.000000 0.000000 0.000000 -0.256857 2.638533 0.396078 1.799432 7.165979 -16.284057 -23.583655 -34.774938 -65.704979 -4.468363 -0.844192 -8.198759 0.000000 0.000000 0.000000 2.670439 6.224504 0.108464 -8.977858 11.366483 10.570152 0.974294 19.996813 61.116621 12.791586 25.192222 -1.598881 0.000000 0.000000 0.000000 
-8.077942 90.386276 14.424992 0.000000 0.000000 0.000000 -5.373078 -13.421374 -1.401856 -12.971146 2.908090 12.165900 29.050256 -1.086419 -3.175531 -6.706492 -0.813405 7.587964 0.000000 0.000000 0.000000 -6.409923 -12.048461 -1.577289 -28.247752 5.038536 5.955068 31.884979 4.123096 5.440417 17.008284 -0.787806 1.532668 0.000000 0.000000 0.000000 -6.141286 -12.015752 -1.260607 -0.807667 -0.095665 -0.181214 7.573217 -4.554540 -0.134157 3.950472 2.504151 0.546882 0.000000 0.000000 0.000000 0.905999 3.866041 0.204829 2.129073 -6.166104 -1.416580 0.000000 0.000000 0.000000 -0.350681 2.515675 0.573729 1.768970 6.561374 -16.379393 -23.258411 -33.838724 -65.165066 -4.274779 -0.857651 -8.634019 0.000000 0.000000 0.000000 2.555270 6.051351 0.260444 -8.459078 11.198048 10.428557 1.157747 20.657943 60.338888 12.942211 25.064629 -1.271315 0.000000 0.000000 0.000000 
-8.388807 90.366379 14.695286 0.000000 0.000000 0.000000 -5.277453 -14.475083 -1.447763 -11.997692 3.439908 12.291498 28.172336 -1.048962 -2.678073 -6.643264 -0.563705 7.426588 0.000000 0.000000 0.000000 -6.309587 -13.124705 -1.598082 -28.501983 5.183527 6.121613 32.065307 4.509519 5.934543 16.733864 -0.799468 0.826681 0.000000 0.000000 0.000000 -6.051633 -13.046369 -1.311267 -0.808359 -0.092492 -0.185813 7.610171 -4.459253 -0.133158 3.814079 2.369058 0.721703 0.000000 0.000000 0.000000 0.682949 3.705110 0.374631 2.177895 -5.953280 -1.383253 0.000000 0.000000 0.000000 -0.462516 2.362343 0.742042 1.716603 6.013737 -16.438312 -22.914168 -32.790341 -64.612066 -4.137872 -0.732688 -9.069282 0.000000 0.000000 0.000000 2.346357 5.834931 0.429286 -7.908778 11.027109 10.440336 1.165076 21.347061 59.621732 13.112460 24.762573 -0.916252 0.000000 0.000000 0.000000 
-8.775472 90.350922 14.952156 0.000000 0.000000 0.000000 -5.145476 -15.667860 -1.487666 -10.836517 3.835392 12.260931 27.205900 -0.823968 -2.111473 -6.341011 -0.017340 7.220044 0.000000 0.000000 0.000000 -6.184686 -14.323472 -1.577910 -28.925677 5.384531 6.246848 32.319577 4.819617 6.579598 16.533393 -0.941008 -0.006230 0.000000 0.000000 0.000000 -5.923841 -14.241393 -1.329562 -0.805615 -0.101343 -0.181618 7.595996 -4.368300 -0.165485 3.696568 2.185699 0.894016 0.000000 0.000000 0.000000 0.534556 3.502648 0.552148 2.258072 -5.728171 -1.329471 0.000000 0.000000 0.000000 -0.550731 2.169186 0.876270 1.628996 5.501340 -16.445576 -22.434316 -31.700496 -64.055228 -4.065422 -0.499086 -9.503424 0.000000 0.000000 0.000000 2.093336 5.579811 0.605828 -7.347805 10.821701 10.603312 0.992497 22.049710 58.955010 13.253663 24.271755 -0.513678 0.000000 0.000000 0.000000 
-9.205263 90.357513 15.236973 0.000000 0.000000 0.000000 -5.004452 -17.012507 -1.532241 -9.541388 3.939271 12.103920 26.428010 -0.621929 -1.439657 -6.375489 0.530665 6.568803 0.000000 0.000000 0.000000 -6.060093 -15.666789 -1.548104 -29.468499 5.742509 6.455008 32.633705 5.127386 7.316853 16.230783 -1.057966 -0.796958 0.000000 0.000000 0.000000 -5.781887 -15.611726 -1.337215 -0.798432 -0.118871 -0.172248 7.608961 -4.296326 -0.180361 3.579265 1.947181 1.036044 0.000000 0.000000 0.000000 0.466196 3.267306 0.708274 2.360870 -5.504420 -1.250933 0.000000 0.000000 0.000000 -0.600170 1.933216 0.953413 1.494502 4.978980 -16.404706 -21.793199 -30.614329 -63.466125 -4.078212 -0.230338 -9.939166 0.000000 0.000000 0.000000 1.820608 5.295243 0.776352 -6.798118 10.533005 10.892200 0.687911 22.766052 58.284395 13.323832 23.668332 -0.026772 0.000000 0.000000 0.000000 
-9.702494 90.383316 15.485683 0.000000 0.000000 0.000000 -4.942097 -18.533580 -1.607174 -8.282620 3.772004 11.952507 26.106378 -0.563141 -0.734424 -6.750979 0.869917 5.225413 0.000000 0.000000 0.000000 -6.012208 -17.185751 -1.559569 -29.978646 6.272981 6.819293 32.765387 5.487812 8.103007 15.808522 -1.016523 -1.342894 0.000000 0.000000 0.000000 -5.707534 -17.171712 -1.380744 -0.785615 -0.138587 -0.161846 7.759110 -4.244896 -0.160724 3.449570 1.654656 1.131542 0.000000 0.000000 0.000000 0.459044 3.005766 0.813481 2.457637 -5.290860 -1.148561 0.000000 0.000000 0.000000 -0.625906 1.664658 0.965139 1.316687 4.427945 -16.318621 -20.997538 -29.516673 -62.751161 -4.189666 0.000509 -10.377802 0.000000 0.000000 0.000000 1.523608 4.979484 0.917816 -6.272045 10.139762 11.271439 0.409248 23.502621 57.468454 13.316980 23.139129 0.549615 0.000000 0.000000 0.000000 
-10.241510 90.432266 15.783657 0.000000 0.000000 0.000000 -5.028127 -20.184456 -1.740210 -7.305987 3.625556 11.956914 26.516206 -0.502172 -0.100873 -6.982929 1.104576 3.345065 0.000000 0.000000 0.000000 -6.088858 -18.878216 -1.663905 -30.331381 6.893888 7.325393 32.670366 5.867075 8.864183 15.379779 -0.807598 -1.601748 0.000000 0.000000 0.000000 -5.743759 -18.859100 -1.486229 -0.771492 -0.150284 -0.156011 8.083340 -4.205041 -0.113137 3.283731 1.319546 1.163149 0.000000 0.000000 0.000000 0.468406 2.722290 0.845392 2.520197 -5.094048 -1.029416 0.000000 0.000000 0.000000 -0.631800 1.379881 0.913408 1.108877 3.842334 -16.205829 -20.024803 -28.401460 -61.849617 -4.400862 0.109452 -10.815727 0.000000 0.000000 0.000000 1.203519 4.631536 1.003616 -5.770790 9.623585 11.686377 0.293954 24.266870 56.423411 13.224143 22.812275 1.224839 0.000000 0.000000 0.000000 
